<svg xmlns="http://www.w3.org/2000/svg" width="23.495" height="31.196" viewBox="0 0 23.495 31.196">
  <path id="Path_3176" data-name="Path 3176" d="M200.749-115.367a3.809,3.809,0,0,1-3.81-3.808,3.809,3.809,0,0,1,3.81-3.81,3.809,3.809,0,0,1,3.808,3.81,3.809,3.809,0,0,1-3.808,3.808Zm0-14.314A10.748,10.748,0,0,0,190-118.934c0,8.314,10.749,17.308,10.749,17.308S211.5-110.62,211.5-118.934A10.747,10.747,0,0,0,200.749-129.681Z" transform="translate(-189 130.681)" fill="none" stroke="#505050" stroke-width="2" fill-rule="evenodd"/>
</svg>
