<svg xmlns="http://www.w3.org/2000/svg" width="25" height="29.433" viewBox="0 0 25 29.433">
  <path id="Path_3216" data-name="Path 3216" d="M3990.27,1077.872a.007.007,0,0,1,0,0,.6.6,0,0,0-.093-.189c-.01-.015-.021-.028-.032-.042a.611.611,0,0,0-.164-.144l-11.881-6.859a.562.562,0,0,0-.071-.024.66.66,0,0,0-.355-.041.6.6,0,0,0-.123.041.634.634,0,0,0-.071.024h0l-11.88,6.859a.6.6,0,0,0-.164.144.5.5,0,0,0-.032.042.6.6,0,0,0-.092.189,0,0,0,0,1,0,0,.641.641,0,0,0-.021.158v14.486a.618.618,0,0,0,.31.537l11.88,6.858a.62.62,0,0,0,.62,0l11.88-6.858a.62.62,0,0,0,.31-.537V1078.03A.63.63,0,0,0,3990.27,1077.872Zm-12.479-5.987,10.642,6.145-3.969,2.291-10.641-6.144Zm3.942,10.012-3.942,2.276-10.641-6.143,3.942-2.276Zm-4.562,3.349V1098.3l-10.64-6.143V1079.1Zm1.239,0,3.942-2.276v4.285l.657-1.056.254.53.578-1.054.327.531.509-1.01.406.482v-4.285l3.969-2.291v13.055l-10.641,6.143Z" transform="translate(-3965.291 -1070.561)" fill="#505050"/>
</svg>
